inDegrees=yes
name=ik_S53_A12_T01
DataType=double
version=3
OpenSimVersion=4.3-2021-08-27-4bc7ad9
endheader
time	pelvis_tilt	pelvis_list	pelvis_rotation	pelvis_tx	pelvis_ty	pelvis_tz	hip_flexion_r	hip_adduction_r	hip_rotation_r	knee_angle_r	knee_angle_r_beta	ankle_angle_r	subtalar_angle_r	mtp_angle_r	hip_flexion_l	hip_adduction_l	hip_rotation_l	knee_angle_l	knee_angle_l_beta	ankle_angle_l	subtalar_angle_l	mtp_angle_l	lumbar_extension	lumbar_bending	lumbar_rotation	arm_flex_r	arm_add_r	arm_rot_r	elbow_flex_r	pro_sup_r	wrist_flex_r	wrist_dev_r	arm_flex_l	arm_add_l	arm_rot_l	elbow_flex_l	pro_sup_l	wrist_flex_l	wrist_dev_l
16.15999999999974	-1.331942142484529	-0.3734548937045726	42.49606551385105	0	0.9399999999999999	0	35.88877162887461	-9.797253725595549	-9.426758040266074	40.23538894539445	0.7022400129176621	0	0	0	35.88877162887461	-9.797253725595549	-9.426758040266074	40.23538894539445	0.7022400129176621	0	0	0	-0.9041690707329113	0.2988429161515292	3.141674121416073	7.92272444751589	-3.792238384207906	-9.530347972265202	3.687537651395296	121.002341734485	0	0	51.72394707086288	-26.99860123933835	7.620672230422974	49.39925141868861	84.32151045734555	0	0
16.17999999999974	-1.296785956831269	-0.4852018806153995	42.87530897630366	0	0.9399999999999999	0	35.89376586441117	-9.797636371031732	-9.427452047106717	40.24101267996045	0.7023381656020969	0	0	0	35.89376586441117	-9.797636371031732	-9.427452047106717	40.24101267996045	0.7023381656020969	0	0	0	-0.9552660534351187	0.19672574235864	2.980510788735633	7.947759750575149	-3.640184437571027	-9.709251207948524	3.752647228035082	120.9151469893635	0	0	48.70487804981208	-27.09448141394467	5.96325004801013	49.07252391533566	84.86958612439032	0	0
16.19999999999974	-1.264866588217367	-0.5657331514042827	43.14901766496313	0	0.9399999999999999	0	35.96207628372885	-9.801213556366372	-9.434962531746313	40.34044125119277	0.7040735215406547	0	0	0	35.96207628372885	-9.801213556366372	-9.434962531746313	40.34044125119277	0.7040735215406547	0	0	0	-0.9890932099190342	0.1201603752192705	2.854203670802861	7.874085352829746	-3.551258714895142	-9.669227358086127	3.710845074837748	120.7445081974383	0	0	45.80146957796445	-26.9698575589356	4.218223304391084	48.36123564240999	85.17055839595123	0	0
16.21999999999974	-1.26263453135479	-0.5670338420769968	43.39659009214424	0	0.9399999999999999	0	35.96722670852684	-9.801603326396451	-9.435673461103152	40.34624779282176	0.7041748648102347	0	0	0	35.96722670852684	-9.801603326396451	-9.435673461103152	40.34624779282176	0.7041748648102347	0	0	0	-0.990231456164515	0.1242338043344284	2.611501229694226	7.879316524076278	-3.567863422459966	-9.675694810165897	3.602249998805942	120.8611090280894	0	0	42.78303283025453	-26.75517131955209	2.125101423041906	49.13036755612391	85.85348426070996	0	0
16.23999999999974	-1.214889363554252	-0.6483601088535259	43.96437371552368	0	0.9399999999999999	0	36.05619357067351	-9.806147478184547	-9.445319374939647	40.47675006676219	0.7064525591718347	0	0	0	36.05619357067351	-9.806147478184547	-9.445319374939647	40.47675006676219	0.7064525591718347	0	0	0	-1.018558746590901	0.0498569735879784	2.210474226521889	7.871512417219965	-3.459959191064367	-9.736479231288669	3.569248521635625	120.9079347758915	0	0	37.35769328284056	-25.8272311977193	-2.21762059532751	50.06949456865388	87.41748159233588	0	0
16.25999999999974	-1.125291700401378	-0.7864789074565323	44.37230304377452	0	0.9399999999999999	0	36.06136060029367	-9.806531898901262	-9.446025874162942	40.48259164550835	0.7065545139544698	0	0	0	36.06136060029367	-9.806531898901262	-9.446025874162942	40.48259164550835	0.7065545139544698	0	0	0	-1.052494953934654	-0.1087821788596017	2.197397461691111	7.924906811328279	-3.20134804785766	-10.16476618258926	3.501040418210733	121.1129356931443	0	0	37.66914582896597	-25.68645008442023	-1.817455570435606	47.47060182440359	86.20164080600176	0	0
16.27999999999974	-1.088361301256322	-0.8041151813924203	44.61312488749556	0	0.9399999999999999	0	36.06643790139128	-9.806909847372435	-9.446720499530752	40.48832301859101	0.7066545452854225	0	0	0	36.06643790139128	-9.806909847372435	-9.446720499530752	40.48832301859101	0.7066545452854225	0	0	0	-1.042434452591888	-0.1396955416569	2.065664314761246	7.861073889624739	-3.241922726995631	-9.993862149471466	3.438523352757433	121.4839979121093	0	0	37.6949146826846	-25.5497223704113	-1.849415923416098	44.93254580357377	85.18626108584473	0	0
16.29999999999974	-1.023340529404793	-0.837156426629746	45.40370979505436	0	0.9399999999999999	0	36.2065387450673	-9.813929364699385	-9.461754718337341	40.69413521202332	0.7102466457015677	0	0	0	36.2065387450673	-9.813929364699385	-9.461754718337341	40.69413521202332	0.7102466457015677	0	0	0	-1.016838286361465	-0.2050524337806319	1.500032683772547	7.80823457197162	-3.16391246256925	-10.10585639191944	3.429059030598336	121.3516792886271	0	0	30.79399479160704	-23.31673110590899	-8.439756205334769	46.7300453829284	89.57157971682412	0	0
16.31999999999974	-0.954221943294792	-0.8734716644658752	45.66802713056349	0	0.9399999999999999	0	36.24882783608941	-9.816135420741894	-9.466398691530037	40.75466455715088	0.7113030820681197	0	0	0	36.24882783608941	-9.816135420741894	-9.466398691530037	40.75466455715088	0.7113030820681197	0	0	0	-0.996900088675051	-0.2754445538577588	1.460499382249593	7.757520443432045	-3.11338108797782	-10.18464885860769	3.383545475204728	122.039725667903	0	0	28.85991289982875	-22.31360642877715	-10.41127245895702	43.41680272175113	89.76365725948538	0	0
16.33999999999974	-0.8365006323385389	-0.9319590516813206	46.08097505330518	0	0.9399999999999999	0	36.25229149490945	-9.816386128778646	-9.466865497632	40.75857495539984	0.7113713313926281	0	0	0	36.25229149490945	-9.816386128778646	-9.466865497632	40.75857495539984	0.7113713313926281	0	0	0	-0.9565234884494233	-0.400399868756208	1.445400859850754	7.651227076494596	-2.963707410634825	-10.40093827534276	3.375084273257869	122.3039247087846	0	0	27.10067310477049	-21.46893419471933	-11.54736174248026	43.55530465061904	90.64897033382991	0	0
16.35999999999974	-0.7944406102417234	-0.9503287950315946	46.34335672210828	0	0.9399999999999999	0	36.25572372086099	-9.816634068788968	-9.467327546209184	40.76245361433494	0.7114390267616075	0	0	0	36.25572372086099	-9.816634068788968	-9.467327546209184	40.76245361433494	0.7114390267616075	0	0	0	-0.9435847633999154	-0.4374529350389971	1.325960322651892	7.590144822759203	-2.943279269874635	-10.28435665351802	3.385336962795128	122.5280730771097	0	0	25.35055860707783	-20.46812441610653	-12.71286631264188	42.6982177477757	90.97236330305684	0	0
16.37999999999974	-0.7168213283673216	-1.002308897319504	46.64336699924694	0	0.9399999999999999	0	36.2613659909672	-9.817042311050784	-9.468088052366653	40.76881470045111	0.7115500486583376	0	0	0	36.2613659909672	-9.817042311050784	-9.468088052366653	40.76881470045111	0.7115500486583376	0	0	0	-0.9291880378186651	-0.52643658270936	1.334103709650563	7.525825110682083	-2.833570323332419	-10.29901791474345	3.438152534681215	122.7300168372521	0	0	25.48416361999728	-20.40995919232272	-12.50885434401605	40.5437622379064	90.55886063210046	0	0
16.39999999999974	-0.6322479633734648	-1.029053938670258	46.97823782537552	0	0.9399999999999999	0	36.26556563281192	-9.817345258933274	-9.468653124369085	40.77355708715573	0.711632818920736	0	0	0	36.26556563281192	-9.817345258933274	-9.468653124369085	40.77355708715573	0.711632818920736	0	0	0	-0.8899001160205552	-0.6077108441922755	1.309446160590132	7.431679725734361	-2.731958813197831	-10.30103506393696	3.45439800169177	122.9332348739329	0	0	23.78311061597012	-19.33497051637077	-13.15987085702248	39.77354095197817	90.9688628010156	0	0
16.41999999999974	-0.5518818089931787	-1.028432648653081	47.24745957194641	0	0.9399999999999999	0	36.27109233057503	-9.817743720337118	-9.469396644319044	40.7797949151736	0.711741689557821	0	0	0	36.27109233057503	-9.817743720337118	-9.469396644319044	40.7797949151736	0.711741689557821	0	0	0	-0.8321296505092892	-0.6697841909684499	1.312978278269215	7.315066286715949	-2.666365187572229	-10.28007398687181	3.450173224880067	122.6148816021975	0	0	22.15460505562843	-18.1696479863851	-13.597197995892	38.97905957555851	91.48030177751032	0	0
16.43999999999974	-0.4426911211312718	-1.010335590559144	47.63061897282456	0	0.9399999999999999	0	36.2742037756835	-9.817966948261349	-9.469813973314441	40.78331897908883	0.7118031960761926	0	0	0	36.2742037756835	-9.817966948261349	-9.469813973314441	40.78331897908883	0.7118031960761926	0	0	0	-0.7412277748370606	-0.7423917335283742	1.35163212713386	7.251966974977072	-2.612213749966165	-10.20892625000263	3.32961300594671	122.6758487137696	0	0	20.46451620107915	-16.79538095387246	-13.68795254653576	38.34268882403116	91.64976950963624	0	0
16.45999999999974	-0.3880768858659139	-0.9949384935316437	47.87178538590816	0	0.9399999999999999	0	36.27959559086754	-9.818354660615396	-9.47053837571433	40.78940775819227	0.7119094653189741	0	0	0	36.27959559086754	-9.818354660615396	-9.47053837571433	40.78940775819227	0.7119094653189741	0	0	0	-0.6905867874395808	-0.7745532999601203	1.342271308932607	7.191611401916901	-2.566398367604709	-10.23247250014785	3.335415897646075	123.02180597924	0	0	18.98529007983948	-15.35097231371459	-14.10034247660751	37.5654192425291	91.95799849953087	0	0
16.47999999999974	-0.3540732515737182	-0.9927094219367111	48.0784584758099	0	0.9399999999999999	0	36.36602053225961	-9.822582273072161	-9.479707747590135	40.91529567570122	0.7141066239679844	0	0	0	36.36602053225961	-9.822582273072161	-9.479707747590135	40.91529567570122	0.7141066239679844	0	0	0	-0.66030209374698	-0.8010291784034137	1.388546266554876	7.135087048675005	-2.563382211802118	-10.47248116989756	3.388464988377057	123.4876012614222	0	0	16.57204902167354	-12.60854043446773	-15.11777838897271	38.43400995919612	93.63921456814707	0	0
16.49999999999974	-0.3230582903234178	-1.011332720980706	48.32452894172828	0	0.9399999999999999	0	36.36997160319984	-9.822861916769011	-9.480233997243596	40.91976485891158	0.71418462592988	0	0	0	36.36997160319984	-9.822861916769011	-9.480233997243596	40.91976485891158	0.71418462592988	0	0	0	-0.6517467334747347	-0.8383901063892163	1.340106233054405	7.178042892538691	-2.516099609740795	-10.47846043776082	3.401000180216285	123.7108740230665	0	0	15.60210896253295	-11.25069830824822	-15.74506543611473	37.18419640654724	94.25512264443478	0	0
16.51999999999974	-0.3012442737085432	-1.022549267769536	48.58598080994027	0	0.9399999999999999	0	36.37491276293722	-9.823211134892798	-9.480891649609969	40.92535513970645	0.7142821947358615	0	0	0	36.37491276293722	-9.823211134892798	-9.480891649609969	40.92535513970645	0.7142821947358615	0	0	0	-0.6474466631811072	-0.8574122394639528	1.191976755396156	7.215042369837525	-2.450997876689968	-10.36752623969594	3.468735747228895	124.0747784892258	0	0	14.77340804162441	-9.98333632584168	-16.50790750654511	33.48452919088599	95.20587909238751	0	0
16.53999999999974	-0.2456009824654914	-1.001948977341286	48.8285852026594	0	0.9399999999999999	0	36.37975864825928	-9.823553297461666	-9.481536359425139	40.93083675842133	0.714377867030775	0	0	0	36.37975864825928	-9.823553297461666	-9.481536359425139	40.93083675842133	0.714377867030775	0	0	0	-0.5938456558319355	-0.886033480324858	1.166282466768655	7.153409992901349	-2.397623977139419	-10.36598254179361	3.448655849592394	124.1759900119422	0	0	13.93027469303528	-8.79792984152038	-16.93197296769268	31.80857493469919	96.41239421286983	0	0
